<svg width="130" height="20" viewBox="0 0 130 20" fill="none" xmlns="http://www.w3.org/2000/svg">
<path d="M39.5298 4.94V15.5H38.3138V8.86L38.4578 6.076H38.4418L34.9698 15.5H33.8818L30.4098 6.076H30.3938L30.5378 8.86V15.5H29.3218V4.94H31.2898L33.6098 11.356L34.4098 13.996H34.4418L35.2578 11.372L37.5618 4.94H39.5298ZM45.925 7.34C46.6823 7.34 47.349 7.50533 47.925 7.836C48.5117 8.16667 48.9703 8.64667 49.301 9.276C49.6317 9.89467 49.797 10.636 49.797 11.5C49.797 12.364 49.6317 13.1107 49.301 13.74C48.9703 14.3587 48.5117 14.8333 47.925 15.164C47.349 15.4947 46.6823 15.66 45.925 15.66C45.1783 15.66 44.5117 15.4947 43.925 15.164C43.3383 14.8333 42.8797 14.3587 42.549 13.74C42.2183 13.1107 42.053 12.364 42.053 11.5C42.053 10.636 42.2183 9.89467 42.549 9.276C42.8797 8.64667 43.3383 8.16667 43.925 7.836C44.5117 7.50533 45.1783 7.34 45.925 7.34ZM45.925 8.444C45.381 8.444 44.917 8.56667 44.533 8.812C44.149 9.05733 43.8503 9.40933 43.637 9.868C43.4343 10.316 43.333 10.86 43.333 11.5C43.333 12.1293 43.4343 12.6733 43.637 13.132C43.8503 13.5907 44.149 13.9427 44.533 14.188C44.917 14.4333 45.381 14.556 45.925 14.556C46.469 14.556 46.933 14.4333 47.317 14.188C47.701 13.9427 47.9943 13.5907 48.197 13.132C48.4103 12.6733 48.517 12.1293 48.517 11.5C48.517 10.86 48.4103 10.316 48.197 9.868C47.9943 9.40933 47.701 9.05733 47.317 8.812C46.933 8.56667 46.469 8.444 45.925 8.444ZM55.3268 15.66C54.6654 15.66 54.0574 15.4947 53.5028 15.164C52.9481 14.8333 52.5054 14.3587 52.1748 13.74C51.8441 13.1107 51.6788 12.364 51.6788 11.5C51.6788 10.6147 51.8548 9.86267 52.2068 9.244C52.5588 8.62533 53.0228 8.156 53.5988 7.836C54.1748 7.50533 54.7934 7.34 55.4548 7.34C56.1161 7.34 56.6868 7.51067 57.1668 7.852C57.6574 8.19333 57.9828 8.64667 58.1428 9.212L57.9828 9.324V3.82H59.2628V15.5H58.1428L58.0308 13.564L58.2068 13.468C58.1321 13.9373 57.9508 14.3373 57.6628 14.668C57.3854 14.988 57.0388 15.2333 56.6228 15.404C56.2174 15.5747 55.7854 15.66 55.3268 15.66ZM55.4548 14.54C55.9668 14.54 56.4094 14.412 56.7828 14.156C57.1668 13.9 57.4601 13.5373 57.6628 13.068C57.8761 12.588 57.9828 12.028 57.9828 11.388C57.9828 10.78 57.8761 10.2573 57.6628 9.82C57.4601 9.38267 57.1721 9.04667 56.7988 8.812C56.4361 8.57733 56.0094 8.46 55.5188 8.46C54.7081 8.46 54.0788 8.73733 53.6308 9.292C53.1828 9.84667 52.9588 10.5827 52.9588 11.5C52.9588 12.4173 53.1774 13.1533 53.6148 13.708C54.0521 14.2627 54.6654 14.54 55.4548 14.54ZM65.582 15.66C64.8247 15.66 64.1473 15.4947 63.55 15.164C62.9633 14.8333 62.5047 14.3587 62.174 13.74C61.8433 13.1107 61.678 12.364 61.678 11.5C61.678 10.636 61.8433 9.89467 62.174 9.276C62.5047 8.64667 62.958 8.16667 63.534 7.836C64.11 7.50533 64.766 7.34 65.502 7.34C66.2487 7.34 66.8833 7.5 67.406 7.82C67.9393 8.14 68.3447 8.57733 68.622 9.132C68.8993 9.676 69.038 10.2893 69.038 10.972C69.038 11.1533 69.0327 11.3187 69.022 11.468C69.0113 11.6173 68.9953 11.7507 68.974 11.868H62.51V10.732H68.414L67.758 10.86C67.758 10.092 67.5447 9.5 67.118 9.084C66.702 8.668 66.1527 8.46 65.47 8.46C64.9473 8.46 64.494 8.58267 64.11 8.828C63.7367 9.06267 63.4433 9.40933 63.23 9.868C63.0273 10.316 62.926 10.86 62.926 11.5C62.926 12.1293 63.0327 12.6733 63.246 13.132C63.4593 13.5907 63.758 13.9427 64.142 14.188C64.5367 14.4227 65.006 14.54 65.55 14.54C66.1367 14.54 66.6113 14.428 66.974 14.204C67.3473 13.98 67.646 13.676 67.87 13.292L68.878 13.884C68.6753 14.2467 68.414 14.5613 68.094 14.828C67.7847 15.0947 67.4167 15.3027 66.99 15.452C66.574 15.5907 66.1047 15.66 65.582 15.66ZM80.2695 15.66C79.5122 15.66 78.8348 15.4947 78.2375 15.164C77.6508 14.8333 77.1922 14.3587 76.8615 13.74C76.5308 13.1107 76.3655 12.364 76.3655 11.5C76.3655 10.636 76.5308 9.89467 76.8615 9.276C77.1922 8.64667 77.6455 8.16667 78.2215 7.836C78.7975 7.50533 79.4535 7.34 80.1895 7.34C80.9362 7.34 81.5708 7.5 82.0935 7.82C82.6268 8.14 83.0322 8.57733 83.3095 9.132C83.5868 9.676 83.7255 10.2893 83.7255 10.972C83.7255 11.1533 83.7202 11.3187 83.7095 11.468C83.6988 11.6173 83.6828 11.7507 83.6615 11.868H77.1975V10.732H83.1015L82.4455 10.86C82.4455 10.092 82.2322 9.5 81.8055 9.084C81.3895 8.668 80.8402 8.46 80.1575 8.46C79.6348 8.46 79.1815 8.58267 78.7975 8.828C78.4242 9.06267 78.1308 9.40933 77.9175 9.868C77.7148 10.316 77.6135 10.86 77.6135 11.5C77.6135 12.1293 77.7202 12.6733 77.9335 13.132C78.1468 13.5907 78.4455 13.9427 78.8295 14.188C79.2242 14.4227 79.6935 14.54 80.2375 14.54C80.8242 14.54 81.2988 14.428 81.6615 14.204C82.0348 13.98 82.3335 13.676 82.5575 13.292L83.5655 13.884C83.3628 14.2467 83.1015 14.5613 82.7815 14.828C82.4722 15.0947 82.1042 15.3027 81.6775 15.452C81.2615 15.5907 80.7922 15.66 80.2695 15.66ZM80.5255 3.5H81.9175L80.3495 6.172H79.3095L80.5255 3.5ZM89.2799 15.66C88.6185 15.66 88.0105 15.4947 87.4559 15.164C86.9012 14.8333 86.4585 14.3587 86.1279 13.74C85.7972 13.1107 85.6319 12.364 85.6319 11.5C85.6319 10.6147 85.8079 9.86267 86.1599 9.244C86.5119 8.62533 86.9759 8.156 87.5519 7.836C88.1279 7.50533 88.7465 7.34 89.4079 7.34C90.0692 7.34 90.6399 7.51067 91.1199 7.852C91.6105 8.19333 91.9359 8.64667 92.0959 9.212L91.9359 9.324V3.82H93.2159V15.5H92.0959L91.9839 13.564L92.1599 13.468C92.0852 13.9373 91.9039 14.3373 91.6159 14.668C91.3385 14.988 90.9919 15.2333 90.5759 15.404C90.1705 15.5747 89.7385 15.66 89.2799 15.66ZM89.4079 14.54C89.9199 14.54 90.3625 14.412 90.7359 14.156C91.1199 13.9 91.4132 13.5373 91.6159 13.068C91.8292 12.588 91.9359 12.028 91.9359 11.388C91.9359 10.78 91.8292 10.2573 91.6159 9.82C91.4132 9.38267 91.1252 9.04667 90.7519 8.812C90.3892 8.57733 89.9625 8.46 89.4719 8.46C88.6612 8.46 88.0319 8.73733 87.5839 9.292C87.1359 9.84667 86.9119 10.5827 86.9119 11.5C86.9119 12.4173 87.1305 13.1533 87.5679 13.708C88.0052 14.2627 88.6185 14.54 89.4079 14.54ZM96.8311 5.964C96.5431 5.964 96.3085 5.87867 96.1271 5.708C95.9565 5.52667 95.8711 5.292 95.8711 5.004C95.8711 4.716 95.9565 4.48667 96.1271 4.316C96.3085 4.13467 96.5431 4.044 96.8311 4.044C97.1191 4.044 97.3485 4.13467 97.5191 4.316C97.7005 4.48667 97.7911 4.716 97.7911 5.004C97.7911 5.292 97.7005 5.52667 97.5191 5.708C97.3485 5.87867 97.1191 5.964 96.8311 5.964ZM97.4711 7.5V15.5H96.1911V7.5H97.4711ZM102.329 5.228V13.292C102.329 13.6867 102.441 13.98 102.665 14.172C102.889 14.364 103.177 14.46 103.529 14.46C103.838 14.46 104.105 14.4067 104.329 14.3C104.553 14.1933 104.756 14.0493 104.937 13.868L105.385 14.94C105.14 15.164 104.846 15.34 104.505 15.468C104.174 15.596 103.79 15.66 103.353 15.66C102.948 15.66 102.569 15.5907 102.217 15.452C101.865 15.3027 101.582 15.0733 101.369 14.764C101.166 14.444 101.06 14.028 101.049 13.516V5.58L102.329 5.228ZM105.241 7.5V8.604H99.4491V7.5H105.241ZM107.784 5.964C107.496 5.964 107.262 5.87867 107.08 5.708C106.91 5.52667 106.824 5.292 106.824 5.004C106.824 4.716 106.91 4.48667 107.08 4.316C107.262 4.13467 107.496 4.044 107.784 4.044C108.072 4.044 108.302 4.13467 108.472 4.316C108.654 4.48667 108.744 4.716 108.744 5.004C108.744 5.292 108.654 5.52667 108.472 5.708C108.302 5.87867 108.072 5.964 107.784 5.964ZM108.424 7.5V15.5H107.144V7.5H108.424ZM114.706 7.34C115.464 7.34 116.13 7.50533 116.706 7.836C117.293 8.16667 117.752 8.64667 118.082 9.276C118.413 9.89467 118.578 10.636 118.578 11.5C118.578 12.364 118.413 13.1107 118.082 13.74C117.752 14.3587 117.293 14.8333 116.706 15.164C116.13 15.4947 115.464 15.66 114.706 15.66C113.96 15.66 113.293 15.4947 112.706 15.164C112.12 14.8333 111.661 14.3587 111.33 13.74C111 13.1107 110.834 12.364 110.834 11.5C110.834 10.636 111 9.89467 111.33 9.276C111.661 8.64667 112.12 8.16667 112.706 7.836C113.293 7.50533 113.96 7.34 114.706 7.34ZM114.706 8.444C114.162 8.444 113.698 8.56667 113.314 8.812C112.93 9.05733 112.632 9.40933 112.418 9.868C112.216 10.316 112.114 10.86 112.114 11.5C112.114 12.1293 112.216 12.6733 112.418 13.132C112.632 13.5907 112.93 13.9427 113.314 14.188C113.698 14.4333 114.162 14.556 114.706 14.556C115.25 14.556 115.714 14.4333 116.098 14.188C116.482 13.9427 116.776 13.5907 116.978 13.132C117.192 12.6733 117.298 12.1293 117.298 11.5C117.298 10.86 117.192 10.316 116.978 9.868C116.776 9.40933 116.482 9.05733 116.098 8.812C115.714 8.56667 115.25 8.444 114.706 8.444ZM120.988 15.5V7.5H122.108L122.22 9.292L122.012 9.116C122.183 8.68933 122.412 8.348 122.7 8.092C122.988 7.82533 123.319 7.63333 123.692 7.516C124.076 7.39867 124.471 7.34 124.876 7.34C125.452 7.34 125.975 7.452 126.444 7.676C126.913 7.88933 127.287 8.22 127.564 8.668C127.852 9.116 127.996 9.68667 127.996 10.38V15.5H126.716V10.828C126.716 9.94267 126.524 9.32933 126.14 8.988C125.767 8.636 125.303 8.46 124.748 8.46C124.364 8.46 123.98 8.55067 123.596 8.732C123.212 8.91333 122.892 9.20667 122.636 9.612C122.391 10.0173 122.268 10.5613 122.268 11.244V15.5H120.988Z" fill="white"/>
<path d="M14.0229 4.18576L14.3939 4.55679C14.6821 4.84503 14.6821 5.31113 14.3939 5.5963L13.5016 6.49169L12.0879 5.07808L12.9803 4.18576C13.2685 3.89751 13.7346 3.89751 14.0198 4.18576H14.0229ZM6.93332 10.2358L11.0484 6.11759L12.4621 7.53121L8.34387 11.6463C8.25494 11.7353 8.14455 11.7996 8.02496 11.8334L6.23111 12.3455L6.7432 10.5516C6.77693 10.432 6.84133 10.3216 6.93025 10.2327L6.93332 10.2358ZM11.9408 3.14625L5.89074 9.1932C5.62397 9.45998 5.43078 9.78808 5.32959 10.1469L4.4526 13.2133C4.379 13.4708 4.44953 13.7468 4.63965 13.9369C4.82977 14.127 5.10574 14.1976 5.36332 14.124L8.42973 13.247C8.79156 13.1427 9.11967 12.9495 9.38338 12.6858L15.4334 6.63888C16.2951 5.77722 16.2951 4.37894 15.4334 3.51728L15.0624 3.14625C14.2007 2.28458 12.8024 2.28458 11.9408 3.14625ZM3.19844 4.34214C1.70816 4.34214 0.5 5.55031 0.5 7.04058V15.3812C0.5 16.8715 1.70816 18.0796 3.19844 18.0796H11.5391C13.0293 18.0796 14.2375 16.8715 14.2375 15.3812V11.9468C14.2375 11.539 13.9094 11.2109 13.5016 11.2109C13.0937 11.2109 12.7656 11.539 12.7656 11.9468V15.3812C12.7656 16.0589 12.2167 16.6078 11.5391 16.6078H3.19844C2.52076 16.6078 1.97188 16.0589 1.97188 15.3812V7.04058C1.97188 6.36291 2.52076 5.81402 3.19844 5.81402H6.63281C7.04065 5.81402 7.36875 5.48591 7.36875 5.07808C7.36875 4.67025 7.04065 4.34214 6.63281 4.34214H3.19844Z" fill="white"/>
</svg>
